<svg width="27" height="28" viewBox="0 0 27 28" fill="none" xmlns="http://www.w3.org/2000/svg">
<path d="M19.3973 17.1609C19.3973 18.324 19.7147 18.7878 20.5446 18.7878C22.3943 18.7878 23.5722 16.3302 23.5722 12.2428C23.5722 5.99539 19.2061 3.00462 13.7552 3.00462C8.14763 3.00462 3.04729 6.92585 3.04729 14.3363C3.04729 21.4145 7.50893 25.2692 14.3607 25.2692C16.6872 25.2692 18.2487 25.0034 20.6376 24.1726L21.1501 26.3977C18.7918 27.1966 16.2715 27.4279 14.3289 27.4279C5.34185 27.4279 0.52832 22.2771 0.52832 14.3349C0.52832 6.32631 6.1067 0.876465 13.7871 0.876465C21.7862 0.876465 26.0234 5.86108 26.0234 11.9755C26.0234 17.1595 24.4632 21.114 19.5554 21.114C17.3232 21.114 15.8586 20.1835 15.6674 18.1218C15.0937 20.4148 13.564 21.114 11.4912 21.114C8.71862 21.114 6.39219 18.8862 6.39219 14.4014C6.39219 9.882 8.43312 7.09062 12.098 7.09062C14.042 7.09062 15.2531 7.88816 15.7922 9.15093L16.7177 7.3897H19.3947V17.1609H19.3973ZM15.4788 12.7745C15.4788 10.9482 14.1708 10.1825 13.0873 10.1825C11.9082 10.1825 10.6029 11.178 10.6029 14.1037C10.6029 16.4298 11.5908 17.7258 13.0873 17.7258C14.139 17.7258 15.4788 17.028 15.4788 15.1006V12.7745Z" fill="white"/>
</svg>
