<svg width="81" height="50" viewBox="0 0 81 50" fill="none" xmlns="http://www.w3.org/2000/svg">
<path fill-rule="evenodd" clip-rule="evenodd" d="M33.3346 18.75C33.3346 20.9601 32.4567 23.0797 30.8939 24.6425C29.3311 26.2053 27.2114 27.0833 25.0013 27.0833C22.7912 27.0833 20.6715 26.2053 19.1087 24.6425C17.5459 23.0797 16.668 20.9601 16.668 18.75C16.668 16.5398 17.5459 14.4202 19.1087 12.8574C20.6715 11.2946 22.7912 10.4166 25.0013 10.4166C27.2114 10.4166 29.3311 11.2946 30.8939 12.8574C32.4567 14.4202 33.3346 16.5398 33.3346 18.75ZM29.168 18.75C29.168 19.855 28.729 20.9148 27.9476 21.6962C27.1662 22.4776 26.1064 22.9166 25.0013 22.9166C23.8962 22.9166 22.8364 22.4776 22.055 21.6962C21.2736 20.9148 20.8346 19.855 20.8346 18.75C20.8346 17.6449 21.2736 16.5851 22.055 15.8037C22.8364 15.0223 23.8962 14.5833 25.0013 14.5833C26.1064 14.5833 27.1662 15.0223 27.9476 15.8037C28.729 16.5851 29.168 17.6449 29.168 18.75Z" fill="white"/>
<path fill-rule="evenodd" clip-rule="evenodd" d="M25.0007 2.08331C12.3444 2.08331 2.08398 12.3437 2.08398 25C2.08398 37.6562 12.3444 47.9166 25.0007 47.9166C37.6569 47.9166 47.9173 37.6562 47.9173 25C47.9173 12.3437 37.6569 2.08331 25.0007 2.08331ZM6.25065 25C6.25065 29.3541 7.73607 33.3625 10.2257 36.5458C11.974 34.2498 14.2296 32.389 16.8161 31.109C19.4027 29.8289 22.2501 29.1641 25.1361 29.1666C27.9847 29.1639 30.7963 29.8115 33.3568 31.0599C35.9172 32.3084 38.1589 34.1248 39.9111 36.3708C41.7162 34.0033 42.9316 31.24 43.4567 28.3095C43.9818 25.3791 43.8016 22.3657 42.9309 19.5187C42.0602 16.6717 40.524 14.073 38.4496 11.9376C36.3751 9.80212 33.822 8.19135 31.0014 7.23854C28.1809 6.28573 25.174 6.01825 22.2295 6.45826C19.2851 6.89826 16.4877 8.03309 14.0689 9.76884C11.6501 11.5046 9.67942 13.7914 8.31988 16.44C6.96033 19.0886 6.25103 22.0228 6.25065 25ZM25.0007 43.75C20.6964 43.7564 16.522 42.2757 13.184 39.5583C14.5276 37.6348 16.3159 36.0644 18.3969 34.9806C20.4778 33.8968 22.7898 33.3316 25.1361 33.3333C27.4531 33.3315 29.7371 33.8824 31.7984 34.9404C33.8598 35.9985 35.6389 37.533 36.9882 39.4166C33.6242 42.2223 29.381 43.7561 25.0007 43.75Z" fill="white"/>
<path d="M70.9863 37L80.9863 22H60.9863L70.9863 37Z" fill="white"/>
</svg>
