<svg width="23" height="24" viewBox="0 0 23 24" fill="none" xmlns="http://www.w3.org/2000/svg">
<path d="M11.3231 0.0767289C5.28126 0.0767289 0.357079 5.21134 0.357079 11.5113C0.357079 13.5306 0.866096 15.4921 1.81774 17.2229L0.268555 23.1537L6.07798 21.5613C7.68249 22.4729 9.48618 22.9575 11.3231 22.9575C17.3649 22.9575 22.289 17.8229 22.289 11.5229C22.289 8.46519 21.1493 5.59211 19.08 3.43442C18.0655 2.36587 16.8572 1.51865 15.5254 0.942172C14.1936 0.365692 12.765 0.0714908 11.3231 0.0767289ZM11.3341 2.00365C13.7686 2.00365 16.0481 2.99596 17.7743 4.79596C18.6215 5.67906 19.2932 6.72786 19.7508 7.88222C20.2084 9.03658 20.443 10.2738 20.4411 11.5229C20.4411 16.7613 16.3468 21.019 11.3231 21.019C9.68536 21.019 8.08085 20.569 6.68659 19.6921L6.35462 19.496L2.90216 20.4421L3.8206 16.9344L3.59929 16.5652C2.68521 15.0521 2.20172 13.2996 2.20503 11.5113C2.2161 6.27288 6.29929 2.00365 11.3341 2.00365ZM7.43905 6.22673C7.262 6.22673 6.96323 6.29596 6.70872 6.58442C6.46528 6.87288 5.74601 7.57673 5.74601 8.97288C5.74601 10.3806 6.73085 11.7306 6.85257 11.9267C7.00749 12.1229 8.80011 15.0075 11.5554 16.2306C12.2083 16.5421 12.7173 16.7152 13.1157 16.8421C13.7686 17.0613 14.3661 17.0267 14.8419 16.9575C15.3731 16.8767 16.4575 16.2652 16.6899 15.596C16.9222 14.9267 16.9222 14.3613 16.8559 14.2344C16.7784 14.119 16.6013 14.0498 16.3247 13.9229C16.0481 13.7613 14.6981 13.069 14.4546 12.9767C14.2001 12.8844 14.0452 12.8383 13.8349 13.1152C13.6579 13.4037 13.1268 14.0498 12.9718 14.2344C12.8058 14.4306 12.6509 14.4537 12.3854 14.3152C12.0977 14.1652 11.2124 13.8652 10.1722 12.896C9.35339 12.1344 8.81118 11.1998 8.64519 10.9113C8.51241 10.6344 8.63413 10.4613 8.76691 10.3344C8.88864 10.2075 9.06569 9.99981 9.17634 9.82673C9.32019 9.66519 9.36446 9.53827 9.45298 9.35365C9.54151 9.1575 9.49724 8.99596 9.43085 8.8575C9.36446 8.73057 8.81118 7.29981 8.5788 6.73442C8.35749 6.18057 8.13618 6.24981 7.95913 6.23827C7.80421 6.23827 7.62716 6.22673 7.43905 6.22673Z" fill="white"/>
</svg>
